<?xml version="1.0" encoding="UTF-8"?><svg id="Layer_2" xmlns="http://www.w3.org/2000/svg" viewBox="0 0 156.28 52.47"><defs><style>.cls-1{letter-spacing:-.01em;}.cls-2{fill:#fff;opacity:.1;}.cls-3{letter-spacing:-.01em;}.cls-4{font-family:Poppins-SemiBold, 'Poppins SemiBold';font-size:25.67px;}.cls-4,.cls-5{fill:#161009;}.cls-6{letter-spacing:0em;}</style></defs><g id="OBJECTS"><g><path class="cls-5" d="M9.78,2.6c1.12,8.23,4.63,33.28,5.94,35.78H62.75L68.02,2.63c.2-1.39-.87-2.63-2.27-2.63H12.06c-1.39,0-2.46,1.22-2.27,2.6Z"/><path class="cls-5" d="M1.03,38.38H75.82c.82,0,1.31,.91,.86,1.59-2.24,3.38-7.73,10.99-11.88,10.99H13.45c-1.4,0-2.76-.37-3.98-1.06C6.32,48.09,.5,44.16,0,39.53c-.07-.62,.4-1.16,1.02-1.16Z"/><path class="cls-5" d="M61.75,34.45c-3.18,0-6.37-.33-9.19-.78l.55-3.53c9.84,1.55,17.3,.63,21-2.57,2.09-1.81,3.08-4.34,3.04-7.76-.03-2.7-.89-4.71-2.63-6.12-4.8-3.91-14.49-2.07-14.59-2.06l-.69-3.5c.46-.09,11.42-2.18,17.52,2.78,2.58,2.1,3.91,5.08,3.95,8.86,.05,4.47-1.39,8-4.28,10.5-3.66,3.17-9.19,4.17-14.7,4.17Z"/><polygon points="15.72 38.38 62.75 38.38 63.33 34.42 15.72 38.38"/><path class="cls-2" d="M18.15,28.48h0c-.85,.15-1.67-.43-1.82-1.28l-2.45-14.26c-.15-.85,.43-1.67,1.28-1.82h0c.85-.15,1.67,.43,1.82,1.28l2.45,14.26c.15,.85-.43,1.67-1.28,1.82Z"/></g></g><g id="TEXTS"><text class="cls-4" transform="translate(87.22 23.03)"><tspan class="cls-1" x="0" y="0">C</tspan><tspan x="14.61" y="0">o</tspan><tspan class="cls-3" x="28.7" y="0">ff</tspan><tspan class="cls-6" x="43.34" y="0">ee</tspan><tspan x="0" y="23.02">Shop</tspan></text></g></svg>